<svg width="32" height="26" viewBox="0 0 32 26" fill="none" xmlns="http://www.w3.org/2000/svg">
<g filter="url(#filter0_d_976_26625)">
<g clip-path="url(#clip0_976_26625)">
<mask id="mask0_976_26625" style="mask-type:luminance" maskUnits="userSpaceOnUse" x="4" y="1" width="24" height="20">
<rect x="4" y="1.82355" width="24" height="18.3529" fill="white"/>
</mask>
<g mask="url(#mask0_976_26625)">
<path fill-rule="evenodd" clip-rule="evenodd" d="M3.96437 1.97339H28.0357V20.0269H3.96437V1.97339Z" fill="#F7FCFF"/>
<path fill-rule="evenodd" clip-rule="evenodd" d="M3.96437 13.006V14.5104H28.0357V13.006H3.96437Z" fill="#E31D1C"/>
<path fill-rule="evenodd" clip-rule="evenodd" d="M3.96437 15.764V17.2685H28.0357V15.764H3.96437Z" fill="#E31D1C"/>
<path fill-rule="evenodd" clip-rule="evenodd" d="M3.96437 7.4895V8.99396H28.0357V7.4895H3.96437Z" fill="#E31D1C"/>
<path fill-rule="evenodd" clip-rule="evenodd" d="M3.96437 18.5224V20.0269H28.0357V18.5224H3.96437Z" fill="#E31D1C"/>
<path fill-rule="evenodd" clip-rule="evenodd" d="M3.96437 10.2479V11.7524H28.0357V10.2479H3.96437Z" fill="#E31D1C"/>
<path fill-rule="evenodd" clip-rule="evenodd" d="M3.96437 1.97339V3.47785H28.0357V1.97339H3.96437Z" fill="#E31D1C"/>
<path fill-rule="evenodd" clip-rule="evenodd" d="M3.96437 4.73145V6.2359H28.0357V4.73145H3.96437Z" fill="#E31D1C"/>
<rect x="4" y="1.82355" width="14.8235" height="9.88235" fill="#2E42A5"/>
<path fill-rule="evenodd" clip-rule="evenodd" d="M5.25968 4.18397L4.71365 4.56677L4.898 3.88555L4.41302 3.45384H5.04646L5.25891 2.89789L5.50803 3.45384H6.04802L5.62374 3.88555L5.788 4.56677L5.25968 4.18397ZM8.26853 4.18399L7.72251 4.56679L7.90685 3.88556L7.42188 3.45385H8.05532L8.26777 2.8979L8.51689 3.45385H9.05688L8.63259 3.88556L8.79685 4.56679L8.26853 4.18399ZM10.7314 4.56679L11.2774 4.18399L11.8058 4.56679L11.6415 3.88556L12.0658 3.45385H11.5258L11.2767 2.8979L11.0642 3.45385H10.4308L10.9158 3.88556L10.7314 4.56679ZM14.2864 4.18399L13.7403 4.56679L13.9247 3.88556L13.4397 3.45385H14.0731L14.2856 2.8979L14.5347 3.45385H15.0747L14.6504 3.88556L14.8147 4.56679L14.2864 4.18399ZM4.71359 7.5757L5.25962 7.1929L5.78794 7.5757L5.62368 6.89448L6.04796 6.46276H5.50797L5.25886 5.90682L5.04641 6.46276H4.41296L4.89794 6.89448L4.71359 7.5757ZM8.26853 7.1929L7.72251 7.5757L7.90685 6.89448L7.42188 6.46276H8.05532L8.26777 5.90682L8.51689 6.46276H9.05688L8.63259 6.89448L8.79685 7.5757L8.26853 7.1929ZM10.7314 7.5757L11.2774 7.1929L11.8058 7.5757L11.6415 6.89448L12.0658 6.46276H11.5258L11.2767 5.90682L11.0642 6.46276H10.4308L10.9158 6.89448L10.7314 7.5757ZM14.2864 7.1929L13.7403 7.5757L13.9247 6.89448L13.4397 6.46276H14.0731L14.2856 5.90682L14.5347 6.46276H15.0747L14.6504 6.89448L14.8147 7.5757L14.2864 7.1929ZM4.71359 10.5846L5.25962 10.2018L5.78794 10.5846L5.62368 9.90339L6.04796 9.47168H5.50797L5.25886 8.91573L5.04641 9.47168H4.41296L4.89794 9.90339L4.71359 10.5846ZM8.26853 10.2018L7.72251 10.5846L7.90685 9.90339L7.42188 9.47168H8.05532L8.26777 8.91573L8.51689 9.47168H9.05688L8.63259 9.90339L8.79685 10.5846L8.26853 10.2018ZM10.7314 10.5846L11.2774 10.2018L11.8058 10.5846L11.6415 9.90339L12.0658 9.47168H11.5258L11.2767 8.91573L11.0642 9.47168H10.4308L10.9158 9.90339L10.7314 10.5846ZM14.2864 10.2018L13.7403 10.5846L13.9247 9.90339L13.4397 9.47168H14.0731L14.2856 8.91573L14.5347 9.47168H15.0747L14.6504 9.90339L14.8147 10.5846L14.2864 10.2018ZM16.7492 4.56679L17.2953 4.18399L17.8236 4.56679L17.6593 3.88556L18.0836 3.45385H17.5436L17.2945 2.8979L17.0821 3.45385H16.4486L16.9336 3.88556L16.7492 4.56679ZM17.2953 7.1929L16.7492 7.5757L16.9336 6.89448L16.4486 6.46276H17.0821L17.2945 5.90682L17.5436 6.46276H18.0836L17.6593 6.89448L17.8236 7.5757L17.2953 7.1929ZM16.7492 10.5846L17.2953 10.2018L17.8236 10.5846L17.6593 9.90339L18.0836 9.47168H17.5436L17.2945 8.91573L17.0821 9.47168H16.4486L16.9336 9.90339L16.7492 10.5846ZM6.76408 5.68845L6.21805 6.07124L6.40239 5.39002L5.91742 4.95831H6.55086L6.76331 4.40236L7.01243 4.95831H7.55242L7.12814 5.39002L7.29239 6.07124L6.76408 5.68845ZM9.22696 6.07124L9.77299 5.68845L10.3013 6.07124L10.137 5.39002L10.5613 4.95831H10.0213L9.77223 4.40236L9.55977 4.95831H8.92633L9.41131 5.39002L9.22696 6.07124ZM12.7819 5.68845L12.2359 6.07124L12.4202 5.39002L11.9352 4.95831H12.5687L12.7811 4.40236L13.0303 4.95831H13.5702L13.146 5.39002L13.3102 6.07124L12.7819 5.68845ZM6.21805 9.08016L6.76408 8.69736L7.29239 9.08016L7.12814 8.39893L7.55242 7.96722H7.01243L6.76331 7.41127L6.55086 7.96722H5.91742L6.40239 8.39893L6.21805 9.08016ZM9.77299 8.69736L9.22696 9.08016L9.41131 8.39893L8.92633 7.96722H9.55977L9.77223 7.41127L10.0213 7.96722H10.5613L10.137 8.39893L10.3013 9.08016L9.77299 8.69736ZM12.2359 9.08016L12.7819 8.69736L13.3102 9.08016L13.146 8.39893L13.5702 7.96722H13.0303L12.7811 7.41127L12.5687 7.96722H11.9352L12.4202 8.39893L12.2359 9.08016ZM15.7908 5.68845L15.2448 6.07124L15.4291 5.39002L14.9442 4.95831H15.5776L15.7901 4.40236L16.0392 4.95831H16.5792L16.1549 5.39002L16.3191 6.07124L15.7908 5.68845ZM15.2448 9.08016L15.7908 8.69736L16.3191 9.08016L16.1549 8.39893L16.5792 7.96722H16.0392L15.7901 7.41127L15.5776 7.96722H14.9442L15.4291 8.39893L15.2448 9.08016Z" fill="#F7FCFF"/>
</g>
<rect x="4" y="1.82355" width="24" height="18.3529" fill="url(#paint0_linear_976_26625)" style="mix-blend-mode:overlay"/>
</g>
<rect x="4.53283" y="2.35638" width="22.9343" height="17.2873" rx="1.59848" stroke="black" stroke-opacity="0.1" stroke-width="1.06566" style="mix-blend-mode:multiply"/>
</g>
<defs>
<filter id="filter0_d_976_26625" x="0.80303" y="0.757891" width="30.3939" height="24.7469" filterUnits="userSpaceOnUse" color-interpolation-filters="sRGB">
<feFlood flood-opacity="0" result="BackgroundImageFix"/>
<feColorMatrix in="SourceAlpha" type="matrix" values="0 0 0 0 0 0 0 0 0 0 0 0 0 0 0 0 0 0 127 0" result="hardAlpha"/>
<feOffset dy="2.13131"/>
<feGaussianBlur stdDeviation="1.59848"/>
<feColorMatrix type="matrix" values="0 0 0 0 0 0 0 0 0 0 0 0 0 0 0 0 0 0 0.1 0"/>
<feBlend mode="normal" in2="BackgroundImageFix" result="effect1_dropShadow_976_26625"/>
<feBlend mode="normal" in="SourceGraphic" in2="effect1_dropShadow_976_26625" result="shape"/>
</filter>
<linearGradient id="paint0_linear_976_26625" x1="16" y1="1.82355" x2="16" y2="20.1765" gradientUnits="userSpaceOnUse">
<stop stop-color="white" stop-opacity="0.7"/>
<stop offset="1" stop-opacity="0.3"/>
</linearGradient>
<clipPath id="clip0_976_26625">
<rect x="4" y="1.82355" width="24" height="18.3529" rx="2.13131" fill="white"/>
</clipPath>
</defs>
</svg>
